<svg width="20" height="20" viewBox="0 0 20 20" fill="none" xmlns="http://www.w3.org/2000/svg">
<g clip-path="url(#clip0_380_4928)">
<mask id="mask0_380_4928" style="mask-type:alpha" maskUnits="userSpaceOnUse" x="3" y="3" width="14" height="14">
<path d="M4.314 10.8281H13.5652L9.52351 14.8699C9.2005 15.1929 9.2005 15.7229 9.52351 16.0459C9.84651 16.3689 10.3683 16.3689 10.6913 16.0459L16.1493 10.588C16.4723 10.265 16.4723 9.74318 16.1493 9.42017L10.6996 3.95391C10.5448 3.79883 10.3348 3.71167 10.1157 3.71167C9.89661 3.71167 9.68653 3.79883 9.53179 3.95391C9.20879 4.27692 9.20879 4.7987 9.53179 5.1217L13.5652 9.1717H4.314C3.85848 9.1717 3.48578 9.5444 3.48578 9.99992C3.48578 10.4554 3.85848 10.8281 4.314 10.8281Z" fill="black"/>
</mask>
<g mask="url(#mask0_380_4928)">
<rect y="0.0612793" width="19.8773" height="19.8773" fill="#212121"/>
</g>
</g>
<defs>
<clipPath id="clip0_380_4928">
<rect width="19.8773" height="19.8773" fill="white" transform="translate(0 0.0612793)"/>
</clipPath>
</defs>
</svg>
