<svg width="24" height="24" viewBox="0 0 24 24" fill="none" xmlns="http://www.w3.org/2000/svg">
<g clip-path="url(#clip0_362_9485)">
<mask id="mask0_362_9485" style="mask-type:alpha" maskUnits="userSpaceOnUse" x="4" y="4" width="16" height="16">
<path d="M11.005 5.20874L11.005 16.3787L6.12498 11.4987C5.73498 11.1087 5.09498 11.1087 4.70498 11.4987C4.31498 11.8887 4.31498 12.5187 4.70498 12.9087L11.295 19.4987C11.685 19.8887 12.315 19.8887 12.705 19.4987L19.295 12.9087C19.685 12.5187 19.685 11.8887 19.295 11.4987C19.1081 11.3115 18.8545 11.2063 18.59 11.2063C18.3255 11.2063 18.0718 11.3115 17.885 11.4987L13.005 16.3787L13.005 5.20874C13.005 4.65874 12.555 4.20874 12.005 4.20874C11.455 4.20874 11.005 4.65874 11.005 5.20874Z" fill="black"/>
</mask>
<g mask="url(#mask0_362_9485)">
<rect width="24" height="24" fill="#212121"/>
</g>
</g>
<defs>
<clipPath id="clip0_362_9485">
<rect width="24" height="24" fill="white"/>
</clipPath>
</defs>
</svg>
