<svg width="24" height="25" viewBox="0 0 24 25" fill="none" xmlns="http://www.w3.org/2000/svg">
<g clip-path="url(#clip0_362_9163)">
<mask id="mask0_362_9163" style="mask-type:alpha" maskUnits="userSpaceOnUse" x="4" y="4" width="16" height="17">
<path d="M5.20874 13.5H16.3787L11.4987 18.38C11.1087 18.77 11.1087 19.41 11.4987 19.8C11.8887 20.19 12.5187 20.19 12.9087 19.8L19.4987 13.21C19.8887 12.82 19.8887 12.19 19.4987 11.8L12.9187 5.19999C12.7319 5.01273 12.4783 4.9075 12.2137 4.9075C11.9492 4.9075 11.6956 5.01273 11.5087 5.19999C11.1187 5.58999 11.1187 6.21999 11.5087 6.60999L16.3787 11.5H5.20874C4.65874 11.5 4.20874 11.95 4.20874 12.5C4.20874 13.05 4.65874 13.5 5.20874 13.5Z" fill="black"/>
</mask>
<g mask="url(#mask0_362_9163)">
<rect y="0.5" width="24" height="24" fill="#212121"/>
</g>
</g>
<defs>
<clipPath id="clip0_362_9163">
<rect width="24" height="24" fill="white" transform="translate(0 0.5)"/>
</clipPath>
</defs>
</svg>
