<svg width="17" height="16" viewBox="0 0 17 16" fill="none" xmlns="http://www.w3.org/2000/svg">
<path fill-rule="evenodd" clip-rule="evenodd" d="M5.96924 0H11.9692C14.7302 0 16.9692 2.239 16.9692 5V11C16.9692 13.761 14.7302 16 11.9692 16H5.96924C3.20824 16 0.969238 13.761 0.969238 11V5C0.969238 2.239 3.20824 0 5.96924 0ZM11.9692 14.5C13.8992 14.5 15.4692 12.93 15.4692 11V5C15.4692 3.07 13.8992 1.5 11.9692 1.5H5.96924C4.03924 1.5 2.46924 3.07 2.46924 5V11C2.46924 12.93 4.03924 14.5 5.96924 14.5H11.9692Z" fill="white"/>
<path fill-rule="evenodd" clip-rule="evenodd" d="M4.96924 8C4.96924 5.791 6.76024 4 8.96924 4C11.1782 4 12.9692 5.791 12.9692 8C12.9692 10.209 11.1782 12 8.96924 12C6.76024 12 4.96924 10.209 4.96924 8ZM6.46924 8C6.46924 9.378 7.59124 10.5 8.96924 10.5C10.3472 10.5 11.4692 9.378 11.4692 8C11.4692 6.621 10.3472 5.5 8.96924 5.5C7.59124 5.5 6.46924 6.621 6.46924 8Z" fill="white"/>
<circle cx="13.2692" cy="3.69999" r="0.533" fill="white"/>
</svg>
