<svg width="42" height="42" viewBox="0 0 42 42" fill="none" xmlns="http://www.w3.org/2000/svg">
<path d="M19.7347 15.96L16.7746 12.5431C16.4334 12.1494 15.8077 12.1511 15.4114 12.5484L12.9771 14.987C12.2526 15.7124 12.0452 16.7895 12.4644 17.6531C14.9683 22.8375 19.1494 27.0244 24.3302 29.5356C25.193 29.9547 26.2692 29.7474 26.9937 29.022L29.4507 26.5606C29.8489 26.1625 29.8497 25.5334 29.4525 25.1921L26.0225 22.2477C25.6637 21.9397 25.1064 21.98 24.7467 22.3405L23.5532 23.5357C23.4921 23.5998 23.4117 23.642 23.3243 23.6559C23.2369 23.6698 23.1473 23.6547 23.0694 23.6127C21.1185 22.4893 19.5002 20.8689 18.3794 18.9166C18.3374 18.8385 18.3222 18.7488 18.3361 18.6613C18.35 18.5737 18.3923 18.4931 18.4564 18.4319L19.6464 17.241C20.0069 16.8787 20.0462 16.3187 19.7347 15.9591V15.96Z" stroke="white" stroke-width="1.75" stroke-linecap="round" stroke-linejoin="round"/>
<rect x="0.4375" y="0.4375" width="41.125" height="41.125" stroke="#8F8F8F" stroke-opacity="0.4" stroke-width="0.875"/>
</svg>
