<svg width="224" height="224" viewBox="0 0 224 224" fill="none" xmlns="http://www.w3.org/2000/svg">
<g opacity="0.35">
<path d="M112 224C89.8485 224 68.1945 217.431 49.7762 205.125C31.3579 192.818 17.0025 175.326 8.52551 154.861C0.0484999 134.395 -2.16952 111.876 2.15203 90.1499C6.47357 68.4241 17.1406 48.4676 32.8041 32.8041C48.4675 17.1406 68.424 6.47364 90.1498 2.1521C111.876 -2.16945 134.395 0.0485336 154.861 8.52555C175.326 17.0026 192.818 31.3579 205.125 49.7762C217.431 68.1945 224 89.8485 224 112C223.964 141.693 212.153 170.16 191.157 191.157C170.16 212.153 141.693 223.964 112 224V224ZM112 6.11626C91.0581 6.11626 70.5866 12.3262 53.1741 23.9609C35.7616 35.5955 22.1902 52.1324 14.1761 71.4801C6.16204 90.8278 4.06517 112.117 8.15072 132.657C12.2363 153.196 22.3207 172.063 37.1289 186.871C51.937 201.679 70.8036 211.764 91.3431 215.849C111.883 219.935 133.172 217.838 152.52 209.824C171.868 201.81 188.404 188.238 200.039 170.826C211.674 153.413 217.884 132.942 217.884 112C217.851 83.9278 206.685 57.0147 186.835 37.1647C166.985 17.3146 140.072 6.14864 112 6.11626V6.11626Z" fill="black" fill-opacity="0.15"/>
<path d="M147.706 130.19L164.232 156.856H137.064L122.557 132.893H85.419V156.856H62.3486V67.1316H132.832C153.211 67.1316 167.193 80.0857 167.193 100.073C167.193 114.679 159.755 125.456 147.706 130.19ZM85.419 113.529H126.422C133.346 113.529 144.122 113.529 144.122 100.073C144.122 86.6178 133.346 86.5444 126.422 86.5444H85.419V113.529Z" fill="black" fill-opacity="0.15"/>
</g>
</svg>
