<svg width="257" height="28" viewBox="0 0 257 28" fill="none" xmlns="http://www.w3.org/2000/svg">
<g clip-path="url(#clip0_60_4542)">
<path d="M22.1479 20.511L26.4545 27.4835H19.3795L15.6881 21.1262H5.94713V27.3809H0V4.10509H18.3541C23.686 4.10509 27.2748 7.4888 27.2748 12.6156C27.1722 16.4095 25.3266 19.2805 22.1479 20.511ZM5.94713 16.1019H16.611C18.4566 16.1019 21.2251 16.1019 21.2251 12.6156C21.2251 9.12939 18.4566 9.12939 16.611 9.12939H5.94713V16.1019Z" fill="white"/>
<path d="M36.8108 8.8218V13.5385H55.4725V17.845H36.8108V22.5617H55.4725V27.2784H30.8636V4.1051H55.4725V8.8218H36.8108Z" fill="white"/>
<path d="M90.7451 4.1051L78.7483 27.381H70.5454L58.5486 4.1051H65.316L74.6469 22.9719L83.9777 4.1051H90.7451Z" fill="white"/>
<path d="M106.946 22.4592H93.0009L90.54 27.381H83.9777L95.8719 4.1051H103.972L115.969 27.381H109.304L106.946 22.4592ZM104.69 17.9476L99.9734 8.51418L95.2567 17.9476H104.69Z" fill="white"/>
<path d="M154.831 27.381H148.883V11.3852L139.245 27.381H134.938L125.095 11.3852V27.381H119.148V4.1051H127.248L136.989 20.511L146.73 4.1051H154.831V27.381Z" fill="white"/>
<path d="M186.412 12.6157C186.412 17.845 182.823 21.1262 177.491 21.1262H165.187V27.381H159.24V4.1051H177.594C182.721 4.1051 186.412 7.48882 186.412 12.6157ZM180.362 12.6157C180.362 9.1294 177.594 9.12941 175.748 9.12941H165.084V16.1019H175.748C177.594 16.1019 180.362 16.1019 180.362 12.6157Z" fill="white"/>
<path d="M214.199 22.3567V27.381H190.206V4.1051H196.153V22.3567H214.199Z" fill="white"/>
<path d="M207.945 4.1051H215.122L224.043 14.7689L232.964 4.1051H240.141L226.914 19.7932V27.4835H220.967V19.7932L207.945 4.1051Z" fill="white"/>
<path d="M244.55 6.46355C244.55 3.18238 247.216 0.618958 250.498 0.618958C253.779 0.618958 256.445 3.18238 256.445 6.46355C256.445 9.74473 253.779 12.3082 250.498 12.3082C247.216 12.3082 244.55 9.74473 244.55 6.46355ZM255.112 6.46355C255.112 3.90013 253.061 1.8494 250.498 1.8494C247.934 1.8494 245.883 3.90013 245.883 6.46355C245.883 9.02697 247.934 11.0777 250.498 11.0777C253.061 11.0777 255.112 9.02697 255.112 6.46355ZM248.242 9.12951V3.59252H251.01C252.138 3.59252 252.958 4.31028 252.958 5.33565C252.958 6.25848 252.446 6.8737 251.625 6.97624L253.266 9.23205H251.831L250.498 7.18131H249.472V9.23205H248.242V9.12951ZM249.472 6.15594H250.805C251.42 6.15594 251.728 5.84833 251.728 5.33565C251.728 4.82297 251.42 4.61789 250.805 4.61789H249.472V6.15594Z" fill="white"/>
</g>
<defs>
<clipPath id="clip0_60_4542">
<rect width="256.445" height="26.7621" fill="white" transform="translate(0 0.618958)"/>
</clipPath>
</defs>
</svg>
