<svg width="509" height="354" viewBox="0 0 509 354" fill="none" xmlns="http://www.w3.org/2000/svg">
<g clip-path="url(#clip0_257_10606)">
<path d="M308.912 257.082L368.765 353.36H270.442L217.983 266.798H83.4923V353.36H-0.177002V29.4165H254.948C328.701 29.4165 379.257 76.1422 379.257 148.35C379.434 201.082 352.518 239.991 308.912 257.082ZM83.4923 196.931H231.928C256.984 196.931 295.942 196.931 295.942 148.35C295.942 99.77 256.984 99.2841 231.928 99.2841H83.4923V196.931Z" fill="#eeeeee"/>
<path d="M456.33 99.2837C482.442 99.2837 503.61 78.1662 503.61 52.1164C503.61 26.0667 482.442 4.94922 456.33 4.94922C430.218 4.94922 409.05 26.0667 409.05 52.1164C409.05 78.1662 430.218 99.2837 456.33 99.2837Z" fill="#eeeeee" stroke="#eeeeee" stroke-width="1.33863" stroke-miterlimit="10"/>
</g>
<defs>
<clipPath id="clip0_257_10606">
<rect width="508.036" height="352.827" fill="#eeeeee" transform="translate(0 0.533203)"/>
</clipPath>
</defs>
</svg>
