<svg width="180" height="19" viewBox="0 0 180 19" fill="none" xmlns="http://www.w3.org/2000/svg">
<g clip-path="url(#clip0_380_70)">
<path d="M15.5273 13.9457L18.5464 18.8339H13.5864L10.9985 14.377H4.16936V18.762H0V2.44403H12.8675C16.6055 2.44403 19.1215 4.81625 19.1215 8.41052C19.0496 11.0703 17.7557 13.0831 15.5273 13.9457ZM4.16936 10.8546H11.6454C12.9394 10.8546 14.8803 10.8546 14.8803 8.41052C14.8803 5.96642 12.9394 5.96642 11.6454 5.96642H4.16936V10.8546Z" fill="white"/>
<path d="M25.8069 5.75076V9.05749H38.89V12.0767H25.8069V15.3834H38.89V18.6901H21.6375V2.44403H38.89V5.75076H25.8069Z" fill="white"/>
<path d="M63.6186 2.44403L55.208 18.762H49.4572L41.0466 2.44403H45.791L52.3326 15.671L58.8742 2.44403H63.6186Z" fill="white"/>
<path d="M74.9765 15.3115H65.2001L63.4748 18.762H58.8742L67.2129 2.44403H72.8918L81.3024 18.762H76.6299L74.9765 15.3115ZM73.395 12.1486L70.0883 5.5351L66.7816 12.1486H73.395Z" fill="white"/>
<path d="M108.547 18.762H104.378V7.5479L97.6205 18.762H94.6013L87.7003 7.5479V18.762H83.5309V2.44403H89.2099L96.039 13.9457L102.868 2.44403H108.547V18.762Z" fill="white"/>
<path d="M130.688 8.41052C130.688 12.0767 128.172 14.377 124.434 14.377H115.808V18.762H111.638V2.44403H124.506C128.1 2.44403 130.688 4.81625 130.688 8.41052ZM126.447 8.41052C126.447 5.96642 124.506 5.96642 123.212 5.96642H115.736V10.8546H123.212C124.506 10.8546 126.447 10.8546 126.447 8.41052Z" fill="white"/>
<path d="M150.169 15.2396V18.762H133.348V2.44403H137.517V15.2396H150.169Z" fill="white"/>
<path d="M145.784 2.44403H150.816L157.07 9.92012L163.324 2.44403H168.356L159.083 13.4425V18.8339H154.913V13.4425L145.784 2.44403Z" fill="white"/>
<path d="M171.447 4.09747C171.447 1.79714 173.316 0 175.616 0C177.917 0 179.786 1.79714 179.786 4.09747C179.786 6.39781 177.917 8.19494 175.616 8.19494C173.316 8.19494 171.447 6.39781 171.447 4.09747ZM178.851 4.09747C178.851 2.30033 177.413 0.862626 175.616 0.862626C173.819 0.862626 172.381 2.30033 172.381 4.09747C172.381 5.89461 173.819 7.33232 175.616 7.33232C177.413 7.33232 178.851 5.89461 178.851 4.09747ZM174.035 5.96649V2.08468H175.976C176.766 2.08468 177.342 2.58788 177.342 3.30673C177.342 3.9537 176.982 4.38501 176.407 4.4569L177.557 6.03838H176.551L175.616 4.60067H174.897V6.03838H174.035V5.96649ZM174.897 3.88182H175.832C176.263 3.88182 176.479 3.66616 176.479 3.30673C176.479 2.9473 176.263 2.80353 175.832 2.80353H174.897V3.88182Z" fill="white"/>
</g>
<defs>
<clipPath id="clip0_380_70">
<rect width="179.786" height="18.7621" fill="white"/>
</clipPath>
</defs>
</svg>
